<svg xmlns="http://www.w3.org/2000/svg" width="50" height="100" viewBox="0 0 100 100" fill="none">
  <path d="M54.1666 37.4999H45.8333V29.1666H54.1666M54.1666 70.8332H45.8333V45.8333H54.1666M49.9999 8.33325C44.5282 8.33325 39.11 9.41099 34.0548 11.5049C28.9995 13.5989 24.4062 16.668 20.5371 20.5371C12.7231 28.3512 8.33325 38.9492 8.33325 49.9999C8.33325 61.0506 12.7231 71.6487 20.5371 79.4627C24.4062 83.3318 28.9995 86.401 34.0548 88.4949C39.11 90.5888 44.5282 91.6666 49.9999 91.6666C61.0506 91.6666 71.6487 87.2767 79.4627 79.4627C87.2767 71.6487 91.6666 61.0506 91.6666 49.9999C91.6666 44.5282 90.5888 39.11 88.4949 34.0548C86.401 28.9995 83.3318 24.4062 79.4627 20.5371C75.5936 16.668 71.0003 13.5989 65.9451 11.5049C60.8898 9.41099 55.4717 8.33325 49.9999 8.33325Z" fill="white"/>
</svg>